<svg width="955px" height="88px" viewBox="0 0 955 88" version="1.1" xmlns="http://www.w3.org/2000/svg" xmlns:xlink="http://www.w3.org/1999/xlink">
    <g stroke="none" stroke-width="1" fill="none" fill-rule="evenodd">
        <g id="Logo" fill="#FFFFFF">
            <path d="M136.666,68.877 L127.081,55.032 L116.502,55.032 L116.502,68.877 L105,68.877 L105,19.177 L126.513,19.177 C130.915022,19.177 134.73715,19.9106593 137.9795,21.378 C141.22185,22.8453407 143.718658,24.9279865 145.47,27.626 C147.221342,30.3240135 148.097,33.5189815 148.097,37.211 C148.097,40.9030185 147.209509,44.0861533 145.4345,46.7605 C143.659491,49.4348467 141.139016,51.4819929 137.873,52.902 L149.02,68.877 L136.666,68.877 Z M136.453,37.211 C136.453,34.4183194 135.553676,32.2765075 133.755,30.7855 C131.956324,29.2944925 129.329351,28.549 125.874,28.549 L116.502,28.549 L116.502,45.873 L125.874,45.873 C129.329351,45.873 131.956324,45.1156742 133.755,43.601 C135.553676,42.0863258 136.453,39.9563471 136.453,37.211 Z M193.821,49.92 C193.821,50.0620007 193.750001,51.0559908 193.608,52.902 L164.711,52.902 C165.231669,55.2686785 166.462324,57.1383265 168.403,58.511 C170.343676,59.8836735 172.757652,60.57 175.645,60.57 C177.63301,60.57 179.396159,60.2741696 180.9345,59.6825 C182.472841,59.0908304 183.90466,58.1560064 185.23,56.878 L191.123,63.268 C187.525649,67.3860206 182.271701,69.445 175.361,69.445 C171.053645,69.445 167.24335,68.6048417 163.93,66.9245 C160.61665,65.2441583 158.060676,62.9130149 156.262,59.931 C154.463324,56.9489851 153.564,53.5646856 153.564,49.778 C153.564,46.038648 154.451491,42.6661817 156.2265,39.6605 C158.001509,36.6548183 160.439151,34.3118417 163.5395,32.6315 C166.639849,30.9511583 170.106981,30.111 173.941,30.111 C177.680352,30.111 181.064652,30.9156586 184.094,32.525 C187.123348,34.1343414 189.501825,36.4418183 191.2295,39.4475 C192.957175,42.4531817 193.821,45.9439801 193.821,49.92 Z M174.012,38.489 C171.503321,38.489 169.397009,39.1989929 167.693,40.619 C165.988991,42.0390071 164.947669,43.9796544 164.569,46.441 L183.384,46.441 C183.005331,44.0269879 181.964009,42.0981739 180.26,40.6545 C178.555991,39.2108261 176.473346,38.489 174.012,38.489 Z M215.547,30.111 C221.463696,30.111 226.007651,31.5191526 229.179,34.3355 C232.350349,37.1518474 233.936,41.3999716 233.936,47.08 L233.936,68.877 L223.57,68.877 L223.57,64.12 C221.487323,67.6700178 217.606028,69.445 211.926,69.445 C208.991319,69.445 206.447177,68.948005 204.2935,67.954 C202.139823,66.959995 200.495006,65.5873421 199.359,63.836 C198.222994,62.0846579 197.655,60.0966778 197.655,57.872 C197.655,54.3219823 198.992153,51.5293435 201.6665,49.494 C204.340847,47.4586565 208.470639,46.441 214.056,46.441 L222.86,46.441 C222.86,44.0269879 222.126341,42.1691732 220.659,40.8675 C219.191659,39.5658268 216.990681,38.915 214.056,38.915 C212.020656,38.915 210.020843,39.2344968 208.0565,39.8735 C206.092157,40.5125032 204.423674,41.3763279 203.051,42.465 L199.075,34.726 C201.157677,33.2586593 203.654485,32.1226707 206.5655,31.318 C209.476515,30.5133293 212.470318,30.111 215.547,30.111 Z M214.695,61.99 C216.588343,61.99 218.268659,61.552171 219.736,60.6765 C221.203341,59.800829 222.244664,58.5110085 222.86,56.807 L222.86,52.902 L215.263,52.902 C210.718977,52.902 208.447,54.3929851 208.447,57.375 C208.447,58.7950071 209.003161,59.9191625 210.1155,60.7475 C211.227839,61.5758375 212.754324,61.99 214.695,61.99 Z M256.798,69.445 C253.626651,69.445 250.526348,69.0545039 247.497,68.2735 C244.467652,67.4924961 242.053676,66.5103393 240.255,65.327 L243.947,57.375 C245.651009,58.4636721 247.709988,59.3511632 250.124,60.0375 C252.538012,60.7238368 254.904655,61.067 257.224,61.067 C261.910023,61.067 264.253,59.9073449 264.253,57.588 C264.253,56.4993279 263.614006,55.7183357 262.336,55.245 C261.057994,54.7716643 259.09368,54.369335 256.443,54.038 C253.318984,53.5646643 250.739344,53.0203364 248.704,52.405 C246.668656,51.7896636 244.905507,50.7010078 243.4145,49.139 C241.923493,47.5769922 241.178,45.3523478 241.178,42.465 C241.178,40.0509879 241.87616,37.909176 243.2725,36.0395 C244.66884,34.169824 246.704153,32.7143385 249.3785,31.673 C252.052847,30.6316615 255.212315,30.111 258.857,30.111 C261.555013,30.111 264.241153,30.4068304 266.9155,30.9985 C269.589847,31.5901696 271.802658,32.4066615 273.554,33.448 L269.862,41.329 C266.501317,39.4356572 262.83302,38.489 258.857,38.489 C256.490322,38.489 254.715339,38.82033 253.532,39.483 C252.348661,40.14567 251.757,40.9976615 251.757,42.039 C251.757,43.2223393 252.395994,44.0506643 253.674,44.524 C254.952006,44.9973357 256.987319,45.4469979 259.78,45.873 C262.904016,46.3936693 265.45999,46.9498304 267.448,47.5415 C269.43601,48.1331696 271.163659,49.2099922 272.631,50.772 C274.098341,52.3340078 274.832,54.5113194 274.832,57.304 C274.832,59.6706785 274.122007,61.7769908 272.702,63.623 C271.281993,65.4690092 269.21118,66.9008282 266.4895,67.9185 C263.76782,68.9361718 260.537352,69.445 256.798,69.445 Z M299.824,69.445 C295.800647,69.445 292.191516,68.6048417 288.9965,66.9245 C285.801484,65.2441583 283.304676,62.9130149 281.506,59.931 C279.707324,56.9489851 278.808,53.5646856 278.808,49.778 C278.808,45.9913144 279.707324,42.6070149 281.506,39.625 C283.304676,36.6429851 285.801484,34.3118417 288.9965,32.6315 C292.191516,30.9511583 295.800647,30.111 299.824,30.111 C303.847353,30.111 307.444651,30.9511583 310.616,32.6315 C313.787349,34.3118417 316.272324,36.6429851 318.071,39.625 C319.869676,42.6070149 320.769,45.9913144 320.769,49.778 C320.769,53.5646856 319.869676,56.9489851 318.071,59.931 C316.272324,62.9130149 313.787349,65.2441583 310.616,66.9245 C307.444651,68.6048417 303.847353,69.445 299.824,69.445 Z M299.824,60.357 C302.664014,60.357 304.995158,59.3985096 306.8175,57.4815 C308.639842,55.5644904 309.551,52.9966828 309.551,49.778 C309.551,46.5593172 308.639842,43.9915096 306.8175,42.0745 C304.995158,40.1574904 302.664014,39.199 299.824,39.199 C296.983986,39.199 294.641009,40.1574904 292.795,42.0745 C290.948991,43.9915096 290.026,46.5593172 290.026,49.778 C290.026,52.9966828 290.948991,55.5644904 292.795,57.4815 C294.641009,59.3985096 296.983986,60.357 299.824,60.357 Z M351.37,30.111 C356.103357,30.111 359.925485,31.5309858 362.8365,34.371 C365.747515,37.2110142 367.203,41.4236387 367.203,47.009 L367.203,68.877 L356.127,68.877 L356.127,48.713 C356.127,45.6836515 355.46434,43.4235075 354.139,41.9325 C352.81366,40.4414925 350.896679,39.696 348.388,39.696 C345.595319,39.696 343.370675,40.5598247 341.714,42.2875 C340.057325,44.0151753 339.229,46.582983 339.229,49.991 L339.229,68.877 L328.153,68.877 L328.153,30.679 L338.732,30.679 L338.732,35.152 C340.199341,33.5426586 342.021656,32.300171 344.199,31.4245 C346.376344,30.548829 348.766654,30.111 351.37,30.111 Z M392.621,30.111 C398.537696,30.111 403.081651,31.5191526 406.253,34.3355 C409.424349,37.1518474 411.01,41.3999716 411.01,47.08 L411.01,68.877 L400.644,68.877 L400.644,64.12 C398.561323,67.6700178 394.680028,69.445 389,69.445 C386.065319,69.445 383.521177,68.948005 381.3675,67.954 C379.213823,66.959995 377.569006,65.5873421 376.433,63.836 C375.296994,62.0846579 374.729,60.0966778 374.729,57.872 C374.729,54.3219823 376.066153,51.5293435 378.7405,49.494 C381.414847,47.4586565 385.544639,46.441 391.13,46.441 L399.934,46.441 C399.934,44.0269879 399.200341,42.1691732 397.733,40.8675 C396.265659,39.5658268 394.064681,38.915 391.13,38.915 C389.094656,38.915 387.094843,39.2344968 385.1305,39.8735 C383.166157,40.5125032 381.497674,41.3763279 380.125,42.465 L376.149,34.726 C378.231677,33.2586593 380.728485,32.1226707 383.6395,31.318 C386.550515,30.5133293 389.544318,30.111 392.621,30.111 Z M391.769,61.99 C393.662343,61.99 395.342659,61.552171 396.81,60.6765 C398.277341,59.800829 399.318664,58.5110085 399.934,56.807 L399.934,52.902 L392.337,52.902 C387.792977,52.902 385.521,54.3929851 385.521,57.375 C385.521,58.7950071 386.077161,59.9191625 387.1895,60.7475 C388.301839,61.5758375 389.828324,61.99 391.769,61.99 Z M443.599,30.111 C447.149018,30.111 450.379485,30.9274918 453.2905,32.5605 C456.201515,34.1935082 458.485325,36.4891519 460.142,39.4475 C461.798675,42.4058481 462.627,45.8493137 462.627,49.778 C462.627,53.7066863 461.798675,57.1501519 460.142,60.1085 C458.485325,63.0668481 456.201515,65.3624918 453.2905,66.9955 C450.379485,68.6285082 447.149018,69.445 443.599,69.445 C438.344974,69.445 434.345347,67.7883499 431.6,64.475 L431.6,68.877 L421.021,68.877 L421.021,16.195 L432.097,16.195 L432.097,34.726 C434.889681,31.649318 438.723642,30.111 443.599,30.111 Z M441.682,60.357 C444.522014,60.357 446.853158,59.3985096 448.6755,57.4815 C450.497842,55.5644904 451.409,52.9966828 451.409,49.778 C451.409,46.5593172 450.497842,43.9915096 448.6755,42.0745 C446.853158,40.1574904 444.522014,39.199 441.682,39.199 C438.841986,39.199 436.510842,40.1574904 434.6885,42.0745 C432.866158,43.9915096 431.955,46.5593172 431.955,49.778 C431.955,52.9966828 432.866158,55.5644904 434.6885,57.4815 C436.510842,59.3985096 438.841986,60.357 441.682,60.357 Z M470.011,16.195 L481.087,16.195 L481.087,68.877 L470.011,68.877 L470.011,16.195 Z M528.799,49.92 C528.799,50.0620007 528.728001,51.0559908 528.586,52.902 L499.689,52.902 C500.209669,55.2686785 501.440324,57.1383265 503.381,58.511 C505.321676,59.8836735 507.735652,60.57 510.623,60.57 C512.61101,60.57 514.374159,60.2741696 515.9125,59.6825 C517.450841,59.0908304 518.88266,58.1560064 520.208,56.878 L526.101,63.268 C522.503649,67.3860206 517.249701,69.445 510.339,69.445 C506.031645,69.445 502.22135,68.6048417 498.908,66.9245 C495.59465,65.2441583 493.038676,62.9130149 491.24,59.931 C489.441324,56.9489851 488.542,53.5646856 488.542,49.778 C488.542,46.038648 489.429491,42.6661817 491.2045,39.6605 C492.979509,36.6548183 495.417151,34.3118417 498.5175,32.6315 C501.617849,30.9511583 505.084981,30.111 508.919,30.111 C512.658352,30.111 516.042652,30.9156586 519.072,32.525 C522.101348,34.1343414 524.479825,36.4418183 526.2075,39.4475 C527.935175,42.4531817 528.799,45.9439801 528.799,49.92 Z M508.99,38.489 C506.481321,38.489 504.375009,39.1989929 502.671,40.619 C500.966991,42.0390071 499.925669,43.9796544 499.547,46.441 L518.362,46.441 C517.983331,44.0269879 516.942009,42.0981739 515.238,40.6545 C513.533991,39.2108261 511.451346,38.489 508.99,38.489 Z M580.842,69.729 C575.777308,69.729 571.197854,68.628511 567.1035,66.4275 C563.009146,64.226489 559.790512,61.1735195 557.4475,57.2685 C555.104488,53.3634805 553.933,48.9496913 553.933,44.027 C553.933,39.1043087 555.104488,34.6905195 557.4475,30.7855 C559.790512,26.8804805 563.009146,23.827511 567.1035,21.6265 C571.197854,19.425489 575.800974,18.325 580.913,18.325 C585.220355,18.325 589.113483,19.0823258 592.5925,20.597 C596.071517,22.1116742 598.994321,24.2889858 601.361,27.129 L593.977,33.945 C590.616317,30.0636473 586.451025,28.123 581.481,28.123 C578.404318,28.123 575.659012,28.7974933 573.245,30.1465 C570.830988,31.4955067 568.949507,33.3769879 567.6005,35.791 C566.251493,38.2050121 565.577,40.950318 565.577,44.027 C565.577,47.1036821 566.251493,49.8489879 567.6005,52.263 C568.949507,54.6770121 570.830988,56.5584933 573.245,57.9075 C575.659012,59.2565067 578.404318,59.931 581.481,59.931 C586.451025,59.931 590.616317,57.9666863 593.977,54.038 L601.361,60.854 C598.994321,63.7413478 596.059684,65.9423258 592.557,67.457 C589.054316,68.9716742 585.149355,69.729 580.842,69.729 Z M625.146,69.445 C621.122647,69.445 617.513516,68.6048417 614.3185,66.9245 C611.123484,65.2441583 608.626676,62.9130149 606.828,59.931 C605.029324,56.9489851 604.13,53.5646856 604.13,49.778 C604.13,45.9913144 605.029324,42.6070149 606.828,39.625 C608.626676,36.6429851 611.123484,34.3118417 614.3185,32.6315 C617.513516,30.9511583 621.122647,30.111 625.146,30.111 C629.169353,30.111 632.766651,30.9511583 635.938,32.6315 C639.109349,34.3118417 641.594324,36.6429851 643.393,39.625 C645.191676,42.6070149 646.091,45.9913144 646.091,49.778 C646.091,53.5646856 645.191676,56.9489851 643.393,59.931 C641.594324,62.9130149 639.109349,65.2441583 635.938,66.9245 C632.766651,68.6048417 629.169353,69.445 625.146,69.445 Z M625.146,60.357 C627.986014,60.357 630.317158,59.3985096 632.1395,57.4815 C633.961842,55.5644904 634.873,52.9966828 634.873,49.778 C634.873,46.5593172 633.961842,43.9915096 632.1395,42.0745 C630.317158,40.1574904 627.986014,39.199 625.146,39.199 C622.305986,39.199 619.963009,40.1574904 618.117,42.0745 C616.270991,43.9915096 615.348,46.5593172 615.348,49.778 C615.348,52.9966828 616.270991,55.5644904 618.117,57.4815 C619.963009,59.3985096 622.305986,60.357 625.146,60.357 Z M676.692,30.111 C681.425357,30.111 685.247485,31.5309858 688.1585,34.371 C691.069515,37.2110142 692.525,41.4236387 692.525,47.009 L692.525,68.877 L681.449,68.877 L681.449,48.713 C681.449,45.6836515 680.78634,43.4235075 679.461,41.9325 C678.13566,40.4414925 676.218679,39.696 673.71,39.696 C670.917319,39.696 668.692675,40.5598247 667.036,42.2875 C665.379325,44.0151753 664.551,46.582983 664.551,49.991 L664.551,68.877 L653.475,68.877 L653.475,30.679 L664.054,30.679 L664.054,35.152 C665.521341,33.5426586 667.343656,32.300171 669.521,31.4245 C671.698344,30.548829 674.088654,30.111 676.692,30.111 Z M715.387,69.445 C712.215651,69.445 709.115348,69.0545039 706.086,68.2735 C703.056652,67.4924961 700.642676,66.5103393 698.844,65.327 L702.536,57.375 C704.240009,58.4636721 706.298988,59.3511632 708.713,60.0375 C711.127012,60.7238368 713.493655,61.067 715.813,61.067 C720.499023,61.067 722.842,59.9073449 722.842,57.588 C722.842,56.4993279 722.203006,55.7183357 720.925,55.245 C719.646994,54.7716643 717.68268,54.369335 715.032,54.038 C711.907984,53.5646643 709.328344,53.0203364 707.293,52.405 C705.257656,51.7896636 703.494507,50.7010078 702.0035,49.139 C700.512493,47.5769922 699.767,45.3523478 699.767,42.465 C699.767,40.0509879 700.46516,37.909176 701.8615,36.0395 C703.25784,34.169824 705.293153,32.7143385 707.9675,31.673 C710.641847,30.6316615 713.801315,30.111 717.446,30.111 C720.144013,30.111 722.830153,30.4068304 725.5045,30.9985 C728.178847,31.5901696 730.391658,32.4066615 732.143,33.448 L728.451,41.329 C725.090317,39.4356572 721.42202,38.489 717.446,38.489 C715.079322,38.489 713.304339,38.82033 712.121,39.483 C710.937661,40.14567 710.346,40.9976615 710.346,42.039 C710.346,43.2223393 710.984994,44.0506643 712.263,44.524 C713.541006,44.9973357 715.576319,45.4469979 718.369,45.873 C721.493016,46.3936693 724.04899,46.9498304 726.037,47.5415 C728.02501,48.1331696 729.752659,49.2099922 731.22,50.772 C732.687341,52.3340078 733.421,54.5113194 733.421,57.304 C733.421,59.6706785 732.711007,61.7769908 731.291,63.623 C729.870993,65.4690092 727.80018,66.9008282 725.0785,67.9185 C722.35682,68.9361718 719.126352,69.445 715.387,69.445 Z M778.719,30.679 L778.719,68.877 L768.211,68.877 L768.211,64.333 C766.743659,65.989675 764.992344,67.255829 762.957,68.1315 C760.921656,69.007171 758.720679,69.445 756.354,69.445 C751.336642,69.445 747.360681,68.0013478 744.426,65.114 C741.491319,62.2266522 740.024,57.9430284 740.024,52.263 L740.024,30.679 L751.1,30.679 L751.1,50.63 C751.1,56.7833641 753.679641,59.86 758.839,59.86 C761.48968,59.86 763.619659,58.9961753 765.229,57.2685 C766.838341,55.5408247 767.643,52.973017 767.643,49.565 L767.643,30.679 L778.719,30.679 Z M789.014,16.195 L800.09,16.195 L800.09,68.877 L789.014,68.877 L789.014,16.195 Z M837.791,67.031 C836.702328,67.8356707 835.365175,68.4391647 833.7795,68.8415 C832.193825,69.2438353 830.525342,69.445 828.774,69.445 C824.229977,69.445 820.715512,68.2853449 818.2305,65.966 C815.745488,63.6466551 814.503,60.2386892 814.503,55.742 L814.503,40.051 L808.61,40.051 L808.61,31.531 L814.503,31.531 L814.503,22.23 L825.579,22.23 L825.579,31.531 L835.093,31.531 L835.093,40.051 L825.579,40.051 L825.579,55.6 C825.579,57.2093414 825.993163,58.451829 826.8215,59.3275 C827.649837,60.203171 828.821326,60.641 830.336,60.641 C832.087342,60.641 833.578327,60.1676714 834.809,59.221 L837.791,67.031 Z M844.039,30.679 L855.115,30.679 L855.115,68.877 L844.039,68.877 L844.039,30.679 Z M849.577,25.354 C847.541656,25.354 845.885006,24.7623393 844.607,23.579 C843.328994,22.3956608 842.69,20.9283421 842.69,19.177 C842.69,17.4256579 843.328994,15.9583393 844.607,14.775 C845.885006,13.5916608 847.541656,13 849.577,13 C851.612344,13 853.268994,13.5679943 854.547,14.704 C855.825006,15.8400057 856.464,17.2599915 856.464,18.964 C856.464,20.8100092 855.825006,22.336494 854.547,23.5435 C853.268994,24.750506 851.612344,25.354 849.577,25.354 Z M888.627,30.111 C893.360357,30.111 897.182485,31.5309858 900.0935,34.371 C903.004515,37.2110142 904.46,41.4236387 904.46,47.009 L904.46,68.877 L893.384,68.877 L893.384,48.713 C893.384,45.6836515 892.72134,43.4235075 891.396,41.9325 C890.07066,40.4414925 888.153679,39.696 885.645,39.696 C882.852319,39.696 880.627675,40.5598247 878.971,42.2875 C877.314325,44.0151753 876.486,46.582983 876.486,49.991 L876.486,68.877 L865.41,68.877 L865.41,30.679 L875.989,30.679 L875.989,35.152 C877.456341,33.5426586 879.278656,32.300171 881.456,31.4245 C883.633344,30.548829 886.023654,30.111 888.627,30.111 Z M954.302,30.679 L954.302,62.487 C954.302,69.4923684 952.479685,74.698983 948.835,78.107 C945.190315,81.515017 939.865368,83.219 932.86,83.219 C929.167982,83.219 925.66535,82.7693378 922.352,81.87 C919.03865,80.9706622 916.293344,79.6690085 914.116,77.965 L918.518,70.013 C920.127341,71.33834 922.162654,72.3914961 924.624,73.1725 C927.085346,73.9535039 929.546654,74.344 932.008,74.344 C935.842019,74.344 938.670158,73.4801753 940.4925,71.7525 C942.314842,70.0248247 943.226,67.4096842 943.226,63.907 L943.226,62.274 C940.338652,65.4453492 936.315359,67.031 931.156,67.031 C927.653316,67.031 924.446515,66.261841 921.5355,64.7235 C918.624485,63.185159 916.317009,61.0196806 914.613,58.227 C912.908991,55.4343194 912.057,52.2156849 912.057,48.571 C912.057,44.9263151 912.908991,41.7076806 914.613,38.915 C916.317009,36.1223194 918.624485,33.956841 921.5355,32.4185 C924.446515,30.880159 927.653316,30.111 931.156,30.111 C936.694028,30.111 940.906652,31.9333151 943.794,35.578 L943.794,30.679 L954.302,30.679 Z M933.357,57.943 C936.291681,57.943 938.693824,57.0791753 940.5635,55.3515 C942.433176,53.6238247 943.368,51.3636806 943.368,48.571 C943.368,45.7783194 942.433176,43.5181753 940.5635,41.7905 C938.693824,40.0628247 936.291681,39.199 933.357,39.199 C930.422319,39.199 928.008343,40.0628247 926.115,41.7905 C924.221657,43.5181753 923.275,45.7783194 923.275,48.571 C923.275,51.3636806 924.221657,53.6238247 926.115,55.3515 C928.008343,57.0791753 930.422319,57.943 933.357,57.943 Z" id="Reasonable-Consultin"></path>
            <g id="Shape">
                <path d="M43.1875,0.141433815 L1.1873,18.5817338 C0.2233,19.0050338 0.101,19.7385338 0,20.5832338 L0,67.5586838 C0.01,68.3219838 0.49,69.0612838 1.1875,69.3713838 C15.1618,75.5754838 29.2306,81.5698838 43.1877,87.8115838 C43.4883,87.9531838 43.8241,88.0072838 44.1565,87.9990838 C44.4984,87.9890838 44.7253,87.8382838 44.9998,87.7178838 L86.8125,69.3714838 C87.51,69.0612838 87.9942,68.3220838 88,67.5586838 L88,20.7082338 C88,19.6791338 87.4954,18.8829338 86.8125,18.5829338 L44.8123,0.142633815 C44.3686,-0.0521661852 43.6098,-0.0428661852 43.1872,0.142633815 C43.1868,0.142833815 43.1875,0.142633815 43.1875,0.142633815 L43.1875,0.141433815 Z M43.9986488,4.14203381 L81.0285976,20.4276861 L43.9986488,36.6820347 L6.9686,20.4276861 L43.9986488,4.14203381 Z M84.0003,23.4574338 L84.0003,66.2447838 L46.0001,82.9346838 L46.0001,40.1473338 L84.0003,23.4574338 Z M3.9998,23.4884338 L42,40.1471338 L42,82.9031838 L3.9998,66.2445838 L3.9998,23.4884338 Z" fill-rule="nonzero"></path>
                <path d="M61.497312,66.68508 L59.2041431,67.6937142 L59.1837104,75.6812652 L55,77.5020886 L55,47.5480656 L61.8858304,44.4329523 C63.2486578,43.8164164 64.4295946,43.7338591 65.4278605,44.1864091 C66.4250391,44.6404674 67.1891903,45.5883105 67.7203304,47.0299761 C68.2503743,48.4731622 68.5057622,50.3349314 68.4873242,52.614199 C68.4695864,54.8069122 68.2018176,56.8302659 67.6847518,58.6832919 C67.1686751,60.534946 66.4398998,62.127676 65.4984433,63.4614752 L68.6287536,71.5706185 L64.1492253,73.520187 L61.497312,66.68508 Z M64.2124195,54.5212846 C64.220231,53.1125891 64.0050884,52.1191407 63.5666757,51.541339 C63.1278501,50.9641098 62.472513,50.8712109 61.6009541,51.2622101 L59.2434705,52.3198256 L59.2209506,61.1233093 L61.5659232,60.083046 C62.4328567,59.6984619 63.0884592,59.0278862 63.533054,58.0708772 C63.9780539,57.1133063 64.2046081,55.9299802 64.2124195,54.5212846 Z M82.6215876,58.8284124 L82.6215876,65.5290096 L70.6360894,70.6969911 L70.9234828,40.3443662 L82.7369856,35 L82.7369856,41.6577878 L75.0616002,45.0936517 L75.0003221,50.2280341 L81.6457283,47.2653878 L81.6457283,53.6986792 L74.9234649,56.6677679 L74.8569938,62.2372674 L82.6215876,58.8284124 Z" id="RE"></path>
            </g>
        </g>
    </g>
</svg>
